<?xml version="1.0" encoding="UTF-8"?>
<svg xmlns="http://www.w3.org/2000/svg" xmlns:xlink="http://www.w3.org/1999/xlink" width="50px" height="50px" viewBox="0 0 50 50" version="1.1">
<g id="surface1">
<path style="fill:none;stroke-width:1.5;stroke-linecap:round;stroke-linejoin:round;stroke:rgb(0%,0%,0%);stroke-opacity:1;stroke-miterlimit:4;" d="M 3.999375 6 L 20.000625 6 C 21.105 6 21.999375 6.89625 21.999375 8.000625 L 21.999375 15.999375 C 21.999375 17.10375 21.105 18 20.000625 18 L 3.999375 18 C 2.895 18 2.000625 17.10375 2.000625 15.999375 L 2.000625 8.000625 C 2.000625 6.89625 2.895 6 3.999375 6 Z M 3.999375 6 " transform="matrix(2.083333,0,0,2.083333,0,0)"/>
<path style="fill:none;stroke-width:1.5;stroke-linecap:round;stroke-linejoin:round;stroke:rgb(0%,0%,0%);stroke-opacity:1;stroke-miterlimit:4;" d="M 5.000625 8.499375 L 6.500625 8.499375 M 8.000625 8.499375 L 6.500625 8.499375 M 6.500625 8.499375 L 6.500625 15.500625 M 6.500625 15.500625 L 5.000625 15.500625 M 6.500625 15.500625 L 8.000625 15.500625 " transform="matrix(2.083333,0,0,2.083333,0,0)"/>
</g>
</svg>
